<svg xmlns="http://www.w3.org/2000/svg" fill-rule="evenodd" stroke-linejoin="round" stroke-miterlimit="2" clip-rule="evenodd" viewBox="0 0 100 101"><path d="M26.282,15.341l0,-9.927c0,-2.161 1.753,-3.914 3.914,-3.914l32.419,0c1.031,-0.003 2.045,0.402 2.798,1.166l21.018,21.309c0.737,0.747 1.127,1.739 1.127,2.748l0,55.023c0,2.161 -1.752,3.914 -3.914,3.914l-9.926,0l0,9.926c0,2.162 -1.753,3.914 -3.914,3.914l-53.448,0c-2.162,0 -3.914,-1.752 -3.914,-3.914l0,-76.331c0,-2.162 1.752,-3.914 3.914,-3.914l9.926,0Zm0,3.914l-9.926,0l0,76.331l53.448,0l0,-9.926l-39.608,0c-2.161,0 -3.914,-1.753 -3.914,-3.914l0,-62.491Zm32.43,-13.841l-28.516,0l0,76.332l53.448,0l0,-51.109l-21.018,0c-2.161,0 -3.914,-1.752 -3.914,-3.914l0,-21.309Zm3.914,0l0,21.309l21.018,0l-21.018,-21.309Z"/></svg>