<svg xmlns="http://www.w3.org/2000/svg"  viewBox="0 0 64 64" baseProfile="basic"><path d="M40.227,12C51.146,12,52,12.854,52,23.773v16.453C52,51.145,51.146,52,40.227,52H23.773C12.854,52,12,51.145,12,40.227	V23.773C12,12.854,12.854,12,23.773,12H40.227z M43.851,39.792c0.723,0,1.914-0.119,1.008-1.628	c-0.076-0.125-0.528-1.115-2.72-3.152c-1.867-1.74-1.771-1.931,0.691-5.543c1.973-2.895,2.269-3.423,2.12-3.906	c-0.138-0.445-0.307-0.618-1.33-0.618c-0.888,0-3.105-0.057-3.822-0.057c-1.083,0-1.238,0.795-2.761,3.891	c-1.232,2.504-1.868,3.251-2.405,3.251c-0.613,0-0.937-0.639-0.937-3.021c0-3.384,0.161-4.802-2.814-4.802	c-4.16,0-4.351,0.976-3.856,1.214c0.614,0.294,1.453,0.651,1.453,2.391c0,2.549,0.015,4.057-0.72,4.057	c-0.735,0-1.121-0.344-2.695-3.212c-1.854-3.378-1.844-3.768-3.152-3.768c-1.056,0-2.488,0-3.419,0c-0.68,0-0.875,0.554-0.705,0.963	c0.216,0.518,3.29,7.474,6.531,10.758s6.552,3.184,7.036,3.184c0.153,0,0.705,0,0.904,0c1.015,0,1.378-0.579,1.465-1.049	c0.294-1.587,0.389-2.524,1.012-2.524c0.595,0,0.961,0.368,3.639,3.066c0.33,0.332,0.619,0.507,1.49,0.507	C40.738,39.792,43.128,39.792,43.851,39.792z"/></svg>